<svg width="512" height="512" viewBox="0 0 512 512" fill="none" xmlns="http://www.w3.org/2000/svg">
<g clip-path="url(#clip0_1_2)">
<path d="M400 0H112C50.1441 0 0 50.1441 0 112V400C0 461.856 50.1441 512 112 512H400C461.856 512 512 461.856 512 400V112C512 50.1441 461.856 0 400 0Z" fill="#111827"/>
<path d="M400 0H112C50.1441 0 0 50.1441 0 112V400C0 461.856 50.1441 512 112 512H400C461.856 512 512 461.856 512 400V112C512 50.1441 461.856 0 400 0Z" fill="#111827"/>
<g clip-path="url(#clip1_1_2)">
<path d="M80.863 243.54L68.1434 358.017C66.3144 374.351 70.2938 390.807 79.3838 404.501C88.4738 418.195 102.094 428.252 117.857 432.909C133.62 437.566 150.519 436.525 165.591 429.969C180.663 423.414 192.947 411.762 200.288 397.056L211.308 375.017H302.379L313.399 397.056C320.74 411.762 333.023 423.414 348.096 429.969C363.168 436.525 380.067 437.566 395.83 432.909C411.593 428.252 425.213 418.195 434.303 404.501C443.393 390.807 447.372 374.351 445.543 358.017L432.793 243.54C430.321 221.272 419.728 200.696 403.038 185.748C386.348 170.8 364.734 162.529 342.329 162.517H171.418C149.003 162.514 127.374 170.779 110.672 185.728C93.9691 200.677 83.3666 221.261 80.8934 243.54H80.863Z" fill="#83BBFF"/>
<path fill-rule="evenodd" clip-rule="evenodd" d="M196.129 238.409C196.129 233.377 194.13 228.551 190.572 224.993C187.014 221.435 182.188 219.436 177.156 219.436C172.124 219.436 167.298 221.435 163.74 224.993C160.182 228.551 158.183 233.377 158.183 238.409V254.863H141.729C136.697 254.863 131.871 256.862 128.313 260.42C124.755 263.978 122.756 268.804 122.756 273.836C122.756 278.868 124.755 283.694 128.313 287.252C131.871 290.81 136.697 292.809 141.729 292.809H158.183V309.233C158.183 314.265 160.182 319.091 163.74 322.649C167.298 326.207 172.124 328.206 177.156 328.206C182.188 328.206 187.014 326.207 190.572 322.649C194.13 319.091 196.129 314.265 196.129 309.233V292.809H212.583C217.615 292.809 222.441 290.81 225.999 287.252C229.557 283.694 231.556 278.868 231.556 273.836C231.556 268.804 229.557 263.978 225.999 260.42C222.441 256.862 217.615 254.863 212.583 254.863H196.129V238.409ZM325.633 311.783C330.665 311.783 335.491 309.784 339.049 306.225C342.607 302.667 344.606 297.841 344.606 292.809C344.606 287.777 342.607 282.951 339.049 279.393C335.491 275.835 330.665 273.836 325.633 273.836C320.601 273.836 315.775 275.835 312.217 279.393C308.658 282.951 306.659 287.777 306.659 292.809C306.659 297.841 308.658 302.667 312.217 306.225C315.775 309.784 320.601 311.783 325.633 311.783ZM382.552 245.756C382.552 250.788 380.553 255.614 376.995 259.172C373.437 262.73 368.611 264.729 363.579 264.729C358.547 264.729 353.721 262.73 350.163 259.172C346.605 255.614 344.606 250.788 344.606 245.756C344.606 240.724 346.605 235.898 350.163 232.34C353.721 228.782 358.547 226.783 363.579 226.783C368.611 226.783 373.437 228.782 376.995 232.34C380.553 235.898 382.552 240.724 382.552 245.756Z" fill="#2859C5"/>
<path d="M248.734 123.703C246.62 121.589 245.563 119 245.563 115.938C245.563 112.875 246.62 110.286 248.734 108.172C250.849 106.057 253.438 105 256.5 105C259.563 105 262.151 106.057 264.266 108.172C266.38 110.286 267.438 112.875 267.438 115.938C267.438 119 266.38 121.589 264.266 123.703C262.151 125.818 259.563 126.875 256.5 126.875C253.438 126.875 250.849 125.818 248.734 123.703ZM272.088 81.375C277.009 83.125 281.474 85.5313 285.484 88.5938C286.943 89.6875 287.691 91.1283 287.729 92.9162C287.767 94.7042 287.128 96.2529 285.813 97.5625C284.573 98.8021 283.042 99.4408 281.219 99.4787C279.396 99.5167 277.755 99.0237 276.297 98C273.526 96.1042 270.464 94.6094 267.109 93.5156C263.755 92.4219 260.219 91.875 256.5 91.875C252.781 91.875 249.245 92.4219 245.891 93.5156C242.536 94.6094 239.474 96.1042 236.703 98C235.245 99.0208 233.604 99.4948 231.781 99.4219C229.958 99.349 228.427 98.6927 227.188 97.4531C225.948 96.1406 225.328 94.5919 225.328 92.8069C225.328 91.0219 226.057 89.581 227.516 88.4844C231.526 85.4219 235.993 83.0331 240.916 81.3181C245.84 79.6031 251.034 78.7471 256.5 78.75C261.966 78.7529 267.162 79.6279 272.088 81.375ZM282.256 56.9844C290.314 59.974 297.552 64.2031 303.969 69.6719C305.427 70.9115 306.193 72.4427 306.266 74.2656C306.339 76.0885 305.719 77.6563 304.406 78.9688C303.167 80.2083 301.635 80.8471 299.813 80.885C297.99 80.9229 296.349 80.3571 294.891 79.1875C289.641 74.8854 283.753 71.5502 277.229 69.1819C270.704 66.8135 263.795 65.6279 256.5 65.625C249.205 65.6221 242.297 66.8077 235.776 69.1819C229.254 71.556 223.365 74.8913 218.109 79.1875C216.651 80.3542 215.01 80.92 213.188 80.885C211.365 80.85 209.833 80.2113 208.594 78.9688C207.281 77.6563 206.661 76.0885 206.734 74.2656C206.807 72.4427 207.573 70.9115 209.031 69.6719C215.448 64.2031 222.686 59.974 230.744 56.9844C238.803 53.9948 247.388 52.5 256.5 52.5C265.612 52.5 274.198 53.9948 282.26 56.9844" fill="#83BBFF"/>
</g>
</g>
<defs>
<clipPath id="clip0_1_2">
<rect width="512" height="512" fill="white"/>
</clipPath>
<clipPath id="clip1_1_2">
<rect width="499" height="499" fill="white" transform="translate(7 -52)"/>
</clipPath>
</defs>
</svg>
